<?xml version="1.0" encoding="utf-8"?>
<!-- Generator: Adobe Illustrator 19.0.0, SVG Export Plug-In . SVG Version: 6.00 Build 0)  -->
<svg version="1.1" id="Layer_1" xmlns="http://www.w3.org/2000/svg" xmlns:xlink="http://www.w3.org/1999/xlink" x="0px" y="0px"
	 width="141.125px" height="58.699px" viewBox="-408 252 141.125 58.699" style="enable-background:new -408 252 141.125 58.699;"
	 xml:space="preserve">
<style type="text/css">
	.st0{fill:#FFFFFF;}
	.st1{opacity:0.4;fill:url(#XMLID_2_);}
	.st2{fill:url(#XMLID_3_);}
	.st3{fill:url(#XMLID_4_);}
	.st4{fill:url(#XMLID_5_);}
	.st5{fill:url(#XMLID_6_);}
	.st6{fill:url(#XMLID_7_);}
	.st7{fill:url(#XMLID_9_);}
	.st8{fill:url(#XMLID_10_);}
	.st9{fill:url(#XMLID_11_);}
	.st10{fill:url(#XMLID_12_);}
	.st11{fill:url(#XMLID_13_);}
	.st12{fill:url(#XMLID_14_);}
	.st13{fill:url(#XMLID_15_);}
	.st14{fill:url(#XMLID_16_);}
	.st15{fill:url(#XMLID_17_);}
</style>
<g id="XMLID_44_">
	<path id="XMLID_624_" class="st0" d="M-273.322,302.602h-112.344c-1.933,0-3.5-1.567-3.5-3.5v-36.904c0-1.933,1.567-3.5,3.5-3.5
		h112.344c1.933,0,3.5,1.567,3.5,3.5v36.904C-269.822,301.035-271.389,302.602-273.322,302.602z"/>
	<g id="XMLID_347_">
		<radialGradient id="XMLID_2_" cx="-381.9473" cy="284.6986" r="26.0003" gradientUnits="userSpaceOnUse">
			<stop  offset="0" style="stop-color:#010101"/>
			<stop  offset="0.8184" style="stop-color:#010101"/>
			<stop  offset="1" style="stop-color:#010101;stop-opacity:0"/>
		</radialGradient>
		<circle id="XMLID_8_" class="st1" cx="-381.947" cy="284.699" r="26"/>
		<g id="XMLID_438_">
			<linearGradient id="XMLID_3_" gradientUnits="userSpaceOnUse" x1="-386.4422" y1="306.5278" x2="-376.4583" y2="249.9058">
				<stop  offset="0" style="stop-color:#F16F99"/>
				<stop  offset="1" style="stop-color:#FEE141"/>
			</linearGradient>
			<path id="XMLID_598_" class="st2" d="M-355.947,255.407v25.5c0,14.36-11.64,26-26,26s-26-11.39-26-25.75s11.64-25.75,26-25.75
				H-355.947z"/>
		</g>
		<path id="XMLID_435_" class="st0" d="M-389.167,271.576c-0.582,0-1.08,0.206-1.493,0.619c-0.412,0.412-0.618,0.91-0.618,1.493
			c0,0.582,0.206,1.08,0.618,1.493c0.413,0.412,0.911,0.618,1.493,0.618c0.584,0,1.081-0.206,1.494-0.618
			c0.412-0.413,0.618-0.911,0.618-1.493c0-0.584-0.206-1.081-0.618-1.493C-388.086,271.781-388.583,271.576-389.167,271.576
			 M-379.663,293.406c-0.582,0-1.078-0.204-1.484-0.61l-11.798-11.814c-0.417-0.408-0.772-0.963-1.064-1.667
			c-0.292-0.704-0.437-1.347-0.437-1.93v-6.864c0-0.572,0.209-1.067,0.627-1.485c0.418-0.417,0.913-0.627,1.485-0.627h6.864
			c0.583,0,1.226,0.145,1.931,0.437c0.703,0.292,1.265,0.646,1.682,1.064l11.799,11.782c0.406,0.429,0.61,0.93,0.61,1.502
			c0,0.583-0.204,1.077-0.61,1.484l-8.102,8.119C-378.589,293.202-379.09,293.406-379.663,293.406"/>
	</g>
	<g id="XMLID_439_">
		<g id="XMLID_54_">
			<linearGradient id="XMLID_4_" gradientUnits="userSpaceOnUse" x1="-348.7543" y1="313.3381" x2="-338.7703" y2="256.7161">
				<stop  offset="0" style="stop-color:#EF3B60"/>
				<stop  offset="1" style="stop-color:#FDCA19"/>
			</linearGradient>
			<path id="XMLID_104_" class="st3" d="M-346.915,266.786h1.979l1.739,5.685l1.883-5.709h1.583l1.883,5.709l1.739-5.685h1.931
				l-2.866,8.456h-1.607l-1.895-5.493l-1.896,5.493h-1.606L-346.915,266.786z"/>
			<linearGradient id="XMLID_5_" gradientUnits="userSpaceOnUse" x1="-337.4264" y1="315.3355" x2="-327.4424" y2="258.7135">
				<stop  offset="0" style="stop-color:#EF3B60"/>
				<stop  offset="1" style="stop-color:#FDCA19"/>
			</linearGradient>
			<path id="XMLID_94_" class="st4" d="M-332.802,266.786h6.332v1.643h-4.497v1.703h3.957v1.643h-3.957v1.763h4.558v1.643h-6.393
				V266.786z"/>
			<linearGradient id="XMLID_6_" gradientUnits="userSpaceOnUse" x1="-329.4457" y1="316.7427" x2="-319.4618" y2="260.1207">
				<stop  offset="0" style="stop-color:#EF3B60"/>
				<stop  offset="1" style="stop-color:#FDCA19"/>
			</linearGradient>
			<path id="XMLID_90_" class="st5" d="M-324.762,266.786h3.897c0.96,0,1.715,0.264,2.194,0.744
				c0.385,0.384,0.576,0.852,0.576,1.451c0,0.948-0.504,1.475-1.104,1.811c0.972,0.372,1.571,0.936,1.571,2.087
				c0,1.535-1.247,2.303-3.143,2.303h-3.993V266.786z M-321.26,270.18c0.815,0,1.331-0.264,1.331-0.911
				c0-0.552-0.432-0.864-1.211-0.864h-1.823v1.775H-321.26z M-320.769,273.562c0.815,0,1.308-0.288,1.308-0.936
				c0-0.563-0.42-0.912-1.367-0.912h-2.135v1.847H-320.769z"/>
			<linearGradient id="XMLID_7_" gradientUnits="userSpaceOnUse" x1="-318.0122" y1="318.7588" x2="-308.0282" y2="262.1368">
				<stop  offset="0" style="stop-color:#EF3B60"/>
				<stop  offset="1" style="stop-color:#FDCA19"/>
			</linearGradient>
			<path id="XMLID_87_" class="st6" d="M-313.075,273.958l1.092-1.308c0.755,0.624,1.547,1.02,2.506,1.02
				c0.756,0,1.212-0.3,1.212-0.815c0-0.468-0.288-0.708-1.691-1.067c-1.69-0.432-2.782-0.899-2.782-2.591
				c0-1.523,1.224-2.53,2.938-2.53c1.224,0,2.267,0.384,3.118,1.067l-0.959,1.391c-0.744-0.516-1.476-0.828-2.184-0.828
				c-0.707,0-1.079,0.324-1.079,0.756c0,0.551,0.359,0.731,1.812,1.103c1.702,0.444,2.662,1.056,2.662,2.543
				c0,1.667-1.271,2.603-3.082,2.603C-310.784,275.302-312.067,274.858-313.075,273.958z"/>
			<linearGradient id="XMLID_9_" gradientUnits="userSpaceOnUse" x1="-309.9439" y1="320.1814" x2="-299.9599" y2="263.5594">
				<stop  offset="0" style="stop-color:#EF3B60"/>
				<stop  offset="1" style="stop-color:#FDCA19"/>
			</linearGradient>
			<path id="XMLID_85_" class="st7" d="M-304.819,266.786h1.847v3.322h3.406v-3.322h1.847v8.396h-1.847v-3.37h-3.406v3.37h-1.847
				V266.786z"/>
			<linearGradient id="XMLID_10_" gradientUnits="userSpaceOnUse" x1="-300.5755" y1="321.8333" x2="-290.5916" y2="265.2113">
				<stop  offset="0" style="stop-color:#EF3B60"/>
				<stop  offset="1" style="stop-color:#FDCA19"/>
			</linearGradient>
			<path id="XMLID_81_" class="st8" d="M-296.071,270.984c0-2.387,1.883-4.342,4.474-4.342s4.449,1.931,4.449,4.342
				c0,2.387-1.883,4.342-4.474,4.342C-294.211,275.326-296.071,273.394-296.071,270.984z M-289.079,270.984
				c0-1.439-1.056-2.639-2.543-2.639s-2.519,1.176-2.519,2.639c0,1.439,1.056,2.639,2.543,2.639S-289.079,272.447-289.079,270.984z"
				/>
			<linearGradient id="XMLID_11_" gradientUnits="userSpaceOnUse" x1="-291.8689" y1="323.3685" x2="-281.8849" y2="266.7466">
				<stop  offset="0" style="stop-color:#EF3B60"/>
				<stop  offset="1" style="stop-color:#FDCA19"/>
			</linearGradient>
			<path id="XMLID_55_" class="st9" d="M-285.499,266.786h3.43c2.003,0,3.214,1.188,3.214,2.926c0,1.943-1.511,2.951-3.394,2.951
				h-1.403v2.519h-1.847V266.786z M-282.189,271.02c0.924,0,1.464-0.552,1.464-1.295c0-0.828-0.576-1.271-1.5-1.271h-1.427v2.567
				H-282.189z"/>
		</g>
		<g id="XMLID_40_">
			<linearGradient id="XMLID_12_" gradientUnits="userSpaceOnUse" x1="-346.5123" y1="313.7334" x2="-336.5284" y2="257.1114">
				<stop  offset="0" style="stop-color:#EF3B60"/>
				<stop  offset="1" style="stop-color:#FDCA19"/>
			</linearGradient>
			<path id="XMLID_52_" class="st10" d="M-341.8,283.757h-4.008v-1.245h9.383v1.245h-4.01v10.696h-1.365V283.757z"/>
			<linearGradient id="XMLID_13_" gradientUnits="userSpaceOnUse" x1="-333.9546" y1="315.9477" x2="-323.9706" y2="259.3257">
				<stop  offset="0" style="stop-color:#EF3B60"/>
				<stop  offset="1" style="stop-color:#FDCA19"/>
			</linearGradient>
			<path id="XMLID_50_" class="st11" d="M-333.906,282.512h1.348v5.305h6.893v-5.305h1.348v11.941h-1.348v-5.374h-6.893v5.374
				h-1.348V282.512z"/>
			<linearGradient id="XMLID_14_" gradientUnits="userSpaceOnUse" x1="-325.2667" y1="317.4796" x2="-315.2827" y2="260.8576">
				<stop  offset="0" style="stop-color:#EF3B60"/>
				<stop  offset="1" style="stop-color:#FDCA19"/>
			</linearGradient>
			<path id="XMLID_48_" class="st12" d="M-320.828,282.512h1.348v11.941h-1.348V282.512z"/>
			<linearGradient id="XMLID_15_" gradientUnits="userSpaceOnUse" x1="-316.3269" y1="319.0559" x2="-306.3429" y2="262.4339">
				<stop  offset="0" style="stop-color:#EF3B60"/>
				<stop  offset="1" style="stop-color:#FDCA19"/>
			</linearGradient>
			<path id="XMLID_46_" class="st13" d="M-315.986,282.512h1.264l7.523,9.57v-9.57h1.313v11.941h-1.074l-7.711-9.792v9.792h-1.314
				V282.512z"/>
			<linearGradient id="XMLID_16_" gradientUnits="userSpaceOnUse" x1="-303.0804" y1="321.3917" x2="-293.0964" y2="264.7697">
				<stop  offset="0" style="stop-color:#EF3B60"/>
				<stop  offset="1" style="stop-color:#FDCA19"/>
			</linearGradient>
			<path id="XMLID_43_" class="st14" d="M-303.042,288.483c0-3.275,2.404-6.176,5.986-6.176c2.014,0,3.26,0.58,4.453,1.587
				l-0.869,1.023c-0.922-0.802-1.945-1.365-3.635-1.365c-2.645,0-4.537,2.235-4.537,4.93c0,2.849,1.824,4.964,4.725,4.964
				c1.365,0,2.627-0.529,3.447-1.194v-2.968h-3.635v-1.211h4.93v4.76c-1.107,0.989-2.779,1.825-4.793,1.825
				C-300.722,294.658-303.042,291.929-303.042,288.483z"/>
			<linearGradient id="XMLID_17_" gradientUnits="userSpaceOnUse" x1="-292.4095" y1="323.2732" x2="-282.4255" y2="266.6512">
				<stop  offset="0" style="stop-color:#EF3B60"/>
				<stop  offset="1" style="stop-color:#FDCA19"/>
			</linearGradient>
			<path id="XMLID_41_" class="st15" d="M-285.904,289.728l-4.965-7.216h1.639l4.025,5.971l4.061-5.971h1.568l-4.963,7.199v4.743
				h-1.365V289.728z"/>
		</g>
	</g>
</g>
</svg>
